<?xml version="1.0" encoding="utf-8"?>
<!-- Generator: Adobe Illustrator 15.1.0, SVG Export Plug-In . SVG Version: 6.00 Build 0)  -->
<!DOCTYPE svg PUBLIC "-//W3C//DTD SVG 1.1//EN" "http://www.w3.org/Graphics/SVG/1.1/DTD/svg11.dtd">
<svg version="1.1" id="Layer_1" xmlns="http://www.w3.org/2000/svg" xmlns:xlink="http://www.w3.org/1999/xlink" x="0px" y="0px"
	 width="595.28px" height="595.28px" viewBox="0 0 595.28 595.28" enable-background="new 0 0 595.28 595.28" xml:space="preserve">
<g>
	<radialGradient id="SVGID_1_" cx="297.4023" cy="297.4072" r="293.9204" gradientUnits="userSpaceOnUse">
		<stop  offset="0" style="stop-color:#E94432"/>
		<stop  offset="0.1923" style="stop-color:#E64331"/>
		<stop  offset="0.3185" style="stop-color:#DE3E2E"/>
		<stop  offset="0.4256" style="stop-color:#CF3729"/>
		<stop  offset="0.5222" style="stop-color:#B92D21"/>
		<stop  offset="0.6117" style="stop-color:#9E2018"/>
		<stop  offset="0.6947" style="stop-color:#7D100C"/>
		<stop  offset="0.7637" style="stop-color:#5B0000"/>
		<stop  offset="1" style="stop-color:#E94030"/>
	</radialGradient>
	<path fill="url(#SVGID_1_)" d="M3.481,297.408c0-37.881,35.521-68.427,49.18-101.365c14.157-34.146,11.175-80.735,36.907-106.469
		c25.734-25.733,72.321-22.747,106.47-36.908c32.939-13.658,63.483-49.178,101.361-49.178c37.886,0,68.43,35.521,101.368,49.178
		c34.146,14.161,80.733,11.175,106.471,36.91c25.731,25.732,22.747,72.321,36.906,106.467c13.659,32.938,49.18,63.485,49.18,101.365
		c0,37.883-35.521,68.427-49.183,101.368c-14.156,34.144-11.172,80.736-36.903,106.468c-25.731,25.73-72.321,22.747-106.471,36.909
		c-32.938,13.656-63.482,49.174-101.368,49.174c-37.878,0-68.422-35.518-101.361-49.174c-34.149-14.162-80.736-11.179-106.47-36.909
		c-25.731-25.731-22.75-72.324-36.907-106.468C39.001,365.835,3.481,335.291,3.481,297.408z"/>
</g>
<g>
	<radialGradient id="SVGID_2_" cx="297.4019" cy="288.5762" r="273.6208" gradientUnits="userSpaceOnUse">
		<stop  offset="0" style="stop-color:#E94632"/>
		<stop  offset="0.3912" style="stop-color:#E94331"/>
		<stop  offset="0.6478" style="stop-color:#E83B2E"/>
		<stop  offset="0.8652" style="stop-color:#E82C29"/>
		<stop  offset="1" style="stop-color:#E71E25"/>
	</radialGradient>
	<path fill="url(#SVGID_2_)" d="M23.781,288.576c0-35.265,33.065-63.7,45.782-94.366c13.182-31.789,10.402-75.157,34.359-99.114
		c23.957-23.955,67.324-21.176,99.116-34.358c30.665-12.716,59.102-45.783,94.36-45.783c35.267,0,63.703,33.067,94.368,45.783
		c31.788,13.182,75.158,10.403,99.118,34.359c23.955,23.956,21.172,67.324,34.356,99.114c12.716,30.665,45.781,59.102,45.781,94.365
		c0,35.267-33.065,63.7-45.781,94.365c-13.185,31.791-10.401,75.158-34.356,99.118c-23.954,23.949-67.327,21.172-99.118,34.356
		c-30.665,12.713-59.102,45.781-94.368,45.781c-35.259,0-63.696-33.068-94.36-45.781c-31.792-13.185-75.159-10.401-99.116-34.356
		c-23.958-23.96-21.177-67.327-34.359-99.118C56.847,352.276,23.781,323.843,23.781,288.576z"/>
</g>
<g>
	<g>
		<path fill="#FFF3C0" d="M202.063,518.762c-30.906-13.041-74.641-9.953-99.933-34.914l0,0
			C77.167,458.56,80.25,414.825,67.22,383.919l0,0c-12.178-29.895-45.758-58.461-45.977-95.346l0,0
			c0.219-36.886,33.799-65.448,45.977-95.336l0,0c13.03-30.914,9.948-74.646,34.911-99.939l0,0
			c25.292-24.954,69.026-21.873,99.933-34.903l0,0c29.889-12.177,58.455-45.76,95.335-45.976l0,0
			c36.888,0.216,65.448,33.799,95.34,45.976l0,0c30.912,13.03,74.644,9.949,99.943,34.903l0,0
			c24.955,25.294,21.867,69.026,34.902,99.939l0,0c12.173,29.888,45.762,58.458,45.978,95.336l0,0
			c-0.216,36.885-33.805,65.451-45.978,95.346l0,0c-13.035,30.906-9.947,74.641-34.902,99.929l0,0
			c-25.291,24.961-69.031,21.873-99.943,34.914l0,0c-29.892,12.167-58.452,45.759-95.34,45.972l0,0
			C260.518,564.521,231.952,530.929,202.063,518.762L202.063,518.762z M390.797,514.07c32.666-13.335,75.677-10.856,98.294-33.805
			l0,0c22.948-22.626,20.468-65.631,33.805-98.296l0,0c13.262-31.447,45.805-59.749,45.589-93.396l0,0
			c0.216-33.641-32.327-61.949-45.589-93.389l0,0c-13.332-32.673-10.856-75.67-33.805-98.293l0,0
			c-22.623-22.95-65.628-20.475-98.294-33.814l0,0c-31.449-13.252-59.751-45.803-93.398-45.586l0,0
			c-33.641-0.217-61.948,32.334-93.389,45.586l0,0c-32.674,13.34-75.67,10.865-98.293,33.814l0,0
			c-22.948,22.624-20.476,65.621-33.807,98.286l0,0c-13.26,31.447-45.802,59.755-45.595,93.396l0,0
			c-0.207,33.647,32.335,61.949,45.595,93.396l0,0c13.331,32.665,10.859,75.67,33.807,98.296l0,0
			c22.624,22.948,65.619,20.47,98.293,33.805l0,0c31.441,13.259,59.748,45.805,93.389,45.586l0,0
			C331.046,559.875,359.348,527.329,390.797,514.07L390.797,514.07z"/>
	</g>
</g>
<g>
	<path fill="#FFF3C0" d="M110.256,349.476c0-4.114-0.165-8.394-0.329-12.344c-0.412-7.982-1.646-8.723-1.646-8.723
		c1.399-0.411,2.716-0.74,4.032-0.74c3.786,0,6.419,1.975,6.419,4.525c0,1.07-0.33,2.058-0.33,2.058l0.33,0.082
		c1.563-4.032,7.488-6.665,12.755-6.665c7.735,0,10.862,2.962,11.191,6.583l0.329,0.082c1.811-4.032,7.735-6.665,13.002-6.665
		c10.862,0,12.015,5.678,12.015,11.438c0,6.008-0.329,11.438-0.329,18.516c0,3.703,0.082,8.641,4.114,8.641
		c1.646,0,3.127-1.152,3.127-1.152l0.33,0.247c0,0-2.058,5.103-9.134,5.103c-3.621,0-7.406-1.729-7.406-6.666
		c0-7.077,0.247-12.015,0.247-20.408c0-5.431-0.165-10.697-6.995-10.697c-7.488,0-8.723,10.533-8.723,14.482
		c0,0.165,0.165,14.236,0.165,14.73c0,5.843-1.893,7.077-3.209,8.559c-2.962-0.412-6.007-0.658-6.007-6.337
		c0-7.077,0.247-12.344,0.247-20.737c0-5.431-0.165-10.697-7.242-10.697c-3.456,0-8.229,3.867-8.229,11.355
		c0,7.406,0.329,13.002,0.329,20.82c0,4.443-2.304,5.596-5.184,5.596c-1.728,0-3.868-0.412-5.843-0.823
		C108.857,369.39,110.256,364.205,110.256,349.476z"/>
	<path fill="#FFF3C0" d="M177.245,381.157c4.772,0,8.887-2.057,11.603-8.229l1.316-3.045c-2.716-0.658-6.089-2.222-7.242-6.172
		c-2.304-7.488-7.406-23.288-10.369-29.872c-0.823-1.728-1.728-3.62-3.292-4.937v-0.412c1.646-0.329,3.292-0.658,6.172-0.658
		c2.798,0,5.678,0.905,6.336,3.456c1.728,7.077,7.242,22.959,10.862,32.094c11.356-32.67,7.077-35.55,14.236-35.55
		c2.551,0,3.785,0.658,3.785,0.658v0.412c0,0-2.14,1.398-4.279,7.57l-12.179,34.397c-4.444,12.426-11.274,17.692-18.021,17.692
		c-5.678,0-5.02-3.127-5.267-8.229C173.13,380.828,175.27,381.157,177.245,381.157z"/>
	<path fill="#FFF3C0" d="M233.039,327.586c1.563,0,3.044,0.165,4.443,0.412c0-4.279-0.165-8.229-0.329-11.438
		c-0.412-7.571-1.481-9.217-1.481-9.217l0.247-0.329c5.514,0.082,10.616,0.987,10.616,6.09c0,7.899-0.412,15.8-0.412,25.674
		c0,7.324,0.165,14.812,0.412,22.055c0.082,2.798,0.823,5.431,3.703,5.431c1.646,0,3.127-1.152,3.127-1.152l0.329,0.247
		c0,0-2.057,5.103-9.134,5.103c-3.374,0-6.913-1.317-6.995-5.925l-0.329-0.165c0,0-3.374,6.501-12.837,6.501
		s-15.553-7.735-15.553-18.927C208.845,337.872,216.828,327.586,233.039,327.586z M237.318,352.108
		c0.083-2.715,0.247-7.241,0.247-10.039v-7.653c0-2.551-2.716-2.962-5.678-2.962c-8.723,0-13.167,9.216-13.167,18.433
		c0,5.679,1.563,15.718,9.134,15.718C235.014,365.604,237.153,357.787,237.318,352.108z"/>
	<path fill="#FFF3C0" d="M275.504,344.209v-0.74c0-6.913-1.563-10.78-7.9-10.78c-4.032,0-8.312,2.222-11.356,4.938l-0.329-0.329
		c1.317-4.938,7.982-10.04,15.224-10.04c11.686,0,13.249,6.995,13.249,14.483c0,4.361-0.247,9.875-0.247,14.4v0.988
		c0,3.209,0.083,9.134,4.115,9.134c1.646,0,3.127-1.152,3.127-1.152l0.329,0.247c0,0-2.057,5.103-9.134,5.103
		c-3.374,0-6.912-1.399-6.995-5.761l-0.329-0.164c-1.893,3.456-6.007,6.336-11.191,6.336c-6.913,0-10.945-5.02-10.945-11.027
		C253.121,347.912,266.534,344.373,275.504,344.209z M267.933,365.028c2.798,0,7.324-2.551,7.324-5.678
		c0-3.292,0.247-7.653,0.247-11.85c-3.374,0.575-13.084,2.057-13.084,10.779C262.419,363.218,265.053,365.028,267.933,365.028z"/>
	<path fill="#FFF3C0" d="M315.416,327.586c1.563,0,3.045,0.165,4.444,0.412c0-4.279-0.165-8.229-0.329-11.438
		c-0.412-7.571-1.481-9.217-1.481-9.217l0.247-0.329c5.513,0.082,10.615,0.987,10.615,6.09c0,7.899-0.411,15.8-0.411,25.674
		c0,7.324,0.164,14.812,0.411,22.055c0.082,2.798,0.822,5.431,3.703,5.431c1.646,0,3.127-1.152,3.127-1.152l0.329,0.247
		c0,0-2.058,5.103-9.135,5.103c-3.373,0-6.912-1.317-6.994-5.925l-0.329-0.165c0,0-3.374,6.501-12.838,6.501
		c-9.463,0-15.553-7.735-15.553-18.927C291.223,337.872,299.205,327.586,315.416,327.586z M319.695,352.108
		c0.082-2.715,0.247-7.241,0.247-10.039v-7.653c0-2.551-2.716-2.962-5.678-2.962c-8.724,0-13.167,9.216-13.167,18.433
		c0,5.679,1.563,15.718,9.135,15.718C317.392,365.604,319.531,357.787,319.695,352.108z"/>
	<path fill="#FFF3C0" d="M337.885,360.503h0.411c0,0,4.773,5.925,12.838,5.925c5.349,0,7.241-2.798,7.241-5.679
		c0-8.476-21.396-7.241-21.396-21.23c0-7.9,7.57-12.262,15.224-12.262c3.292,0,12.426,1.234,12.426,4.608
		c0,1.729-1.481,4.361-2.962,5.925h-0.412c0,0-4.032-6.912-10.286-6.912c-3.703,0-6.419,2.633-6.419,6.254
		c0,8.394,21.396,6.337,21.396,21.066c0,8.312-8.065,12.673-15.718,12.673c-5.432,0-13.989-2.304-13.989-5.843
		C336.239,363.712,337.227,361.654,337.885,360.503z"/>
	<path fill="#FFF3C0" d="M390.387,344.209v-0.74c0-6.913-1.563-10.78-7.9-10.78c-4.032,0-8.312,2.222-11.355,4.938l-0.329-0.329
		c1.316-4.938,7.981-10.04,15.224-10.04c11.685,0,13.248,6.995,13.248,14.483c0,4.361-0.246,9.875-0.246,14.4v0.988
		c0,3.209,0.082,9.134,4.114,9.134c1.646,0,3.127-1.152,3.127-1.152l0.329,0.247c0,0-2.057,5.103-9.134,5.103
		c-3.374,0-6.913-1.399-6.995-5.761l-0.329-0.164c-1.893,3.456-6.007,6.336-11.191,6.336c-6.912,0-10.944-5.02-10.944-11.027
		C368.004,347.912,381.417,344.373,390.387,344.209z M382.815,365.028c2.798,0,7.324-2.551,7.324-5.678
		c0-3.292,0.247-7.653,0.247-11.85c-3.374,0.575-13.084,2.057-13.084,10.779C377.303,363.218,379.936,365.028,382.815,365.028z"/>
	<path fill="#FFF3C0" d="M410.221,381.157c4.773,0,8.888-2.057,11.604-8.229l1.316-3.045c-2.716-0.658-6.09-2.222-7.241-6.172
		c-2.305-7.488-7.406-23.288-10.369-29.872c-0.823-1.728-1.728-3.62-3.291-4.937v-0.412c1.646-0.329,3.291-0.658,6.171-0.658
		c2.798,0,5.679,0.905,6.337,3.456c1.728,7.077,7.241,22.959,10.862,32.094c11.356-32.67,7.077-35.55,14.236-35.55
		c2.551,0,3.785,0.658,3.785,0.658v0.412c0,0-2.14,1.398-4.279,7.57l-12.179,34.397c-4.443,12.426-11.273,17.692-18.021,17.692
		c-5.678,0-5.02-3.127-5.267-8.229C406.106,380.828,408.246,381.157,410.221,381.157z"/>
	<path fill="#FFF3C0" d="M444.621,360.503h0.411c0,0,4.773,5.925,12.838,5.925c5.349,0,7.241-2.798,7.241-5.679
		c0-8.476-21.396-7.241-21.396-21.23c0-7.9,7.57-12.262,15.224-12.262c3.292,0,12.426,1.234,12.426,4.608
		c0,1.729-1.481,4.361-2.962,5.925h-0.412c0,0-4.032-6.912-10.286-6.912c-3.703,0-6.419,2.633-6.419,6.254
		c0,8.394,21.396,6.337,21.396,21.066c0,8.312-8.065,12.673-15.718,12.673c-5.432,0-13.989-2.304-13.989-5.843
		C442.976,363.712,443.963,361.654,444.621,360.503z"/>
</g>
<polygon fill="#FFF3C0" points="112.169,399.116 136.443,417.999 448.548,417.999 472.818,399.116 "/>
<path fill="#FFF3C0" d="M180.258,251.26c-3.43-4.458-7.613-7.993-12.569-10.604c-2.708-1.442-5.431-2.884-8.168-4.326
	c-2.757-1.438-5.48-2.884-8.182-4.324c-2.792-1.353-5.535-2.746-8.24-4.188c-2.703-1.44-5.408-2.884-8.11-4.324
	c-1.533-0.811-2.901-2.024-4.114-3.646c-1.222-1.625-2.016-3.335-2.366-5.139c0-0.356-0.026-0.694-0.069-1.012
	c-0.049-0.315-0.066-0.653-0.066-1.015c0.083-3.032,1.279-5.593,3.585-7.689c2.291-2.095,4.833-3.637,7.63-4.617
	c0.627-0.266,1.259-0.489,1.886-0.667c0.632-0.177,1.259-0.359,1.892-0.538c0.449-0.086,0.883-0.158,1.288-0.201
	c0.405-0.042,0.833-0.112,1.279-0.203c0.906-0.089,1.78-0.158,2.636-0.204c0.854-0.044,1.688-0.067,2.501-0.067
	c2.794,0,5.52,0.292,8.171,0.873c2.659,0.586,5.244,1.637,7.768,3.155c-2.162,0.628-3.737,1.679-4.727,3.157
	c-0.989,1.476-1.489,3.066-1.489,4.767c-0.086,2.234,0.633,4.271,2.162,6.107c1.529,1.835,3.697,2.752,6.492,2.752
	c2.613,0,4.678-0.85,6.21-2.554c1.53-1.707,2.3-3.67,2.3-5.911c0-0.986-0.138-1.929-0.405-2.825
	c-0.268-0.89-0.725-1.748-1.349-2.554c-2.794-3.942-6.371-6.739-10.747-8.396c-4.364-1.656-8.987-2.487-13.852-2.487h-1.619
	c-0.538,0-1.083,0.043-1.622,0.131c-4.229,0.275-8.354,1.103-12.359,2.49c-4.011,1.389-7.498,3.117-10.477,5.178
	c-3.329,2.33-6.006,5.153-8.039,8.473c-2.027,3.313-3.088,7.081-3.174,11.29c-0.184,6.578,1.981,12.047,6.486,16.419
	c4.502,4.367,9.459,7.994,14.867,10.876c1.616,0.902,3.197,1.712,4.727,2.434c1.529,0.72,3.019,1.439,4.456,2.159
	c1.268,0.632,2.481,1.219,3.648,1.753c1.17,0.543,2.211,1.084,3.105,1.625c1.087,0.631,2.303,1.307,3.651,2.027
	c1.351,0.726,2.703,1.535,4.051,2.429c3.24,1.987,6.196,4.307,8.858,6.963c2.645,2.657,3.939,5.649,3.847,8.984
	c-0.095,1.979-0.699,3.874-1.823,5.674c-1.133,1.804-2.679,3.381-4.663,4.731c-2.613,1.803-5.385,3.018-8.312,3.647
	c-2.927,0.631-5.969,0.947-9.125,0.947c-8.734,0-16.39-2.771-22.957-8.313c-6.583-5.537-9.732-12.902-9.461-22.09l-3.787-0.133
	c-0.178,10.358,3.378,18.646,10.672,24.86c7.297,6.216,15.807,9.324,25.533,9.324c1.449,0,2.933-0.067,4.462-0.204
	c1.536-0.131,3.074-0.336,4.597-0.606c7.383-1.352,14.119-4.37,20.2-9.054c6.081-4.683,8.896-11.349,8.447-19.997
	C185.522,260.833,183.673,255.719,180.258,251.26z M469.13,275.245v2.296c0,3.873-1.282,7.252-3.853,10.136
	c-2.567,2.881-5.735,4.548-9.52,5v-66.884h9.459v-3.785h-9.459V151c0-5.641-0.583-10.984-5.718-16.12
	c-1.769-1.77-3.721-3.101-5.837-4.034c-2.826-2.428-7.052-5.019-13.021-6.163c-12.696-2.433-33.339,1.439-53.903-2.501
	c-17.926-3.437-31.838-11.389-36.3-9.061c-1.771-1.046-4.58-2.708-4.911-2.919c-0.479-0.311-0.376-1.16-0.376-1.16
	c1.728-9.026-4.549-13.434-10.997-14.672c-6.449-1.238-11.633,2.502-12.958,9.424c-1.322,6.924,2.85,10.12,2.85,10.12l29.701,23.479
	c0,0,2.438,5.415,2.648,5.781c0.198,0.365,0.701,0.841,1.371,0.482c0.345-0.188,0.489-0.469,0.546-0.699
	c2.677,4.298,6.504,8.422,11.782,11.227c-0.201,0.095-0.399,0.189-0.563,0.3c-1.711,1.166-6.816,3.047-9.49,3.646
	c-2.665,0.597-2.499,2.339-4.157,2.533c-1.656,0.194-5.126,6.233,20.576,11.158c25.694,4.929,24.708-1.965,23.241-2.757
	c-1.475-0.793-0.655-2.346-2.93-3.89c-2.26-1.544-6.302-5.181-7.466-6.897c-0.089-0.129-0.213-0.259-0.328-0.387
	c13.659-0.543,24.955-6.604,27.913-8.607c3.603-2.442,20.477-13.415,39.963-13.178c5.687,4.857,5.592,12.075,5.592,12.075
	c0,67.637-18.173,68.269-18.173,98.689v30.672c0,3.873-1.288,7.252-3.855,10.136c-2.564,2.881-5.747,4.548-9.524,5v-51.618
	c0-5.312-1.852-9.817-5.534-13.513c-3.7-3.691-8.206-5.539-13.521-5.539h-6.753v3.785h4.996v51.749c0,1.636,0.253,3.168,0.609,4.656
	c-0.624,1.982-1.624,3.821-3.099,5.48c-2.567,2.881-5.741,4.548-9.528,5v-48.51c0-6.121-2.162-11.346-6.485-15.67
	c-4.324-4.325-9.551-6.489-15.678-6.489c-4.138,0-8.013,1.105-11.615,3.311c-3.605,2.211-6.305,5.158-8.102,8.852
	c-1.449-3.694-3.77-6.641-6.969-8.852c-3.194-2.205-6.776-3.311-10.738-3.311h-7.699v3.785h5.813v58.245
	c-0.615,1.282-1.363,2.505-2.372,3.64c-2.57,2.881-5.747,4.548-9.522,5v-48.51c0-6.121-2.162-11.346-6.488-15.67
	c-4.321-4.325-9.551-6.489-15.675-6.489c-3.697,0-7.182,0.884-10.471,2.636c-3.286,1.755-5.972,4.166-8.039,7.231v-18.378
	c0-5.135-1.941-9.57-5.813-13.309c-3.873-3.74-8.372-5.606-13.507-5.606h-6.624v3.781h4.868v98.097h21.077v-52.696
	c0.172-3.601,1.259-6.913,3.24-9.929c1.981-3.021,4.597-5.204,7.837-6.555c0.178-0.091,0.359-0.157,0.538-0.2
	c0.184-0.046,0.365-0.07,0.546-0.07c0.175-0.089,0.362-0.134,0.541-0.134h0.538c1.619-0.093,2.976,0.541,4.054,1.889
	c1.081,1.355,1.846,2.837,2.3,4.46c0.089,0.451,0.153,0.877,0.202,1.284c0.043,0.404,0.066,0.791,0.066,1.147v41.886
	c0,5.675,1.958,10.25,5.876,13.718c3.922,3.466,8.312,5.199,13.179,5.199h1.007c0.316,0,0.652-0.046,1.018-0.134
	c1.978-0.181,3.922-0.699,5.811-1.554c1.895-0.858,3.688-2.141,5.402-3.853c0.155-0.151,0.27-0.303,0.414-0.453v5.993h20.797
	v-52.292c0-3.691,1.013-7.065,3.042-10.132c2.03-3.062,4.712-5.314,8.039-6.756c0.187-0.091,0.362-0.157,0.546-0.2
	c0.178-0.046,0.354-0.07,0.54-0.07c0.179-0.089,0.356-0.134,0.535-0.134h0.546c1.622-0.093,2.968,0.541,4.054,1.889
	c1.075,1.355,1.841,2.837,2.295,4.46c0.086,0.451,0.158,0.877,0.207,1.284c0.043,0.404,0.063,0.791,0.063,1.147v41.886
	c0,5.675,1.963,10.25,5.879,13.718c3.919,3.466,8.309,5.199,13.173,5.199h1.016c0.313,0,0.649-0.046,1.009-0.134
	c1.989-0.181,3.919-0.699,5.811-1.554c1.895-0.858,3.694-2.141,5.405-3.853c1.285-1.282,2.297-2.599,3.096-3.939
	c0.819,1.386,1.763,2.717,2.981,3.939c3.697,3.693,8.146,5.54,13.375,5.54c5.221,0,9.712-1.847,13.446-5.54
	c1.604-1.59,2.797-3.347,3.717-5.22c0.915,1.873,2.11,3.63,3.715,5.22c3.743,3.693,8.223,5.54,13.449,5.54
	c5.224,0,9.683-1.847,13.38-5.54c3.687-3.694,5.532-8.152,5.532-13.377v-2.296H469.13z M318.574,114.081
	c-5.138-4.215-3.884-9.811-3.884-9.811c1.989-10.352,9.718-8.689,9.718-8.689c9.406,1.802,9.116,11.616,8.771,13.613
	c-0.349,2,1.351,2.797,1.351,2.797s2.726,1.647,4.721,2.789c0.236,0.136,0.435,0.326,0.61,0.544c0.184,0.384,0.457,0.973,0.802,1.82
	c0.382,1.647,0.271,3.517,0.302,3.837c0.046,0.519,0.515,0.532,0.84,0.523c0.138-0.003,0.218-0.132,0.281-0.275
	c0.633,2.125,1.225,4.649,1.538,7.441c0.19,1.705,0.661,3.853,1.435,6.187C341.586,132.16,323.221,117.889,318.574,114.081z
	 M379.493,129.761c-5.399,0-10.098-0.323-13.878-1.049c-11.466-2.145-17.923-7.725-19.274-10.809l0.003-0.001
	c-0.092-0.201-0.101-0.302-0.101-0.309c0.015-0.014-0.015-0.029,0.253-0.208c0.305-0.171,0.909-0.32,1.501-0.315v0.007
	c2.226-0.122,9.755,4.202,23.049,7.125c11.213,2.449,22.765,2.787,33.02,2.787c4.151,0,8.091-0.058,11.71-0.058
	c0.664,0,1.319,0.001,1.964,0.006C403.174,128.553,390.004,129.761,379.493,129.761z M238.756,290.108
	c-4.051,1.8-8.329,2.703-12.829,2.703c-3.7,0-6.903-1.333-9.594-3.988c-2.703-2.656-4.062-5.829-4.062-9.523v-40.129
	c0-3.696,1.326-6.847,3.988-9.459c2.653-2.615,5.836-3.92,9.525-3.92c2.165,0,4.327,0.201,6.486,0.606
	c2.168,0.404,4.235,1.062,6.216,1.961c-1.71,0.811-2.97,1.89-3.781,3.241c-0.811,1.354-1.219,2.795-1.219,4.326
	c0,2.251,0.788,4.301,2.369,6.148c1.57,1.846,3.666,2.771,6.282,2.771c2.705,0,4.81-0.901,6.351-2.704
	c1.53-1.803,2.294-3.782,2.294-5.944c0-1.443-0.293-2.792-0.874-4.052c-0.592-1.265-1.555-2.346-2.91-3.246
	c-2.789-2.07-5.79-3.669-8.981-4.796c-3.203-1.127-6.42-1.775-9.66-1.96c-0.362-0.089-0.747-0.135-1.158-0.135h-1.271
	c-4.686,0-9.26,0.901-13.722,2.704c-4.457,1.803-8.487,4.55-12.092,8.244c-3.516,3.604-6.17,7.678-7.967,12.226
	c-1.808,4.55-2.703,9.212-2.703,13.984c0,4.775,0.874,9.438,2.631,13.982c1.754,4.553,4.433,8.672,8.039,12.367
	c3.329,3.424,7.098,6.033,11.281,7.836c4.192,1.803,8.453,2.837,12.774,3.108h1.616c4.775,0,9.461-0.946,14.062-2.835
	c4.588-1.893,8.688-4.732,12.288-8.514l-2.705-2.57C246.366,285.782,242.812,288.306,238.756,290.108z"/>
<circle fill="#FFF3C0" cx="411.063" cy="205.42" r="10.396"/>
</svg>
